<svg width="675" height="872" viewBox="0 0 675 872" fill="none" xmlns="http://www.w3.org/2000/svg">
<path d="M596 862C594.667 852.667 592 842.667 588 832C584.667 822 577 817 565 817C555 817 541.333 817.333 524 818C507.333 819.333 489.333 820.667 470 822C450.667 824 431.333 825.333 412 826C392.667 827.333 375.667 828 361 828C303 828 251.667 819.667 207 803C162.333 786.333 124.667 763.333 94 734C63.3333 704.667 40 669.667 24 629C8 587.667 1.74344e-06 542.333 1.74344e-06 493C1.74344e-06 424.333 11 365.333 33 316C55 266 84.6667 225 122 193C159.333 161 202.333 137.667 251 123C299.667 107.667 350.667 99.9999 404 99.9999C420 99.9999 437.333 100.667 456 102C474.667 102.667 492.333 104 509 106C525.667 107.333 540.333 109 553 111C565.667 112.333 574.667 113.667 580 115C583.333 115.667 586.667 110 590 98C593.333 86 597.333 73 602 58.9999C607.333 44.3333 613.333 31 620 19C626.667 6.33331 634.667 -1.85966e-05 644 -1.85966e-05C655.333 3.33331 663.333 6.99997 668 11C672.667 14.9999 670.333 20.3333 661 27C645.667 39 632.667 55.3333 622 76C612 96 603 120.333 595 149C591.667 157.667 588 170 584 186C580.667 202 577.667 220 575 240C573.667 245.333 569.333 248 562 248C555.333 247.333 550.667 242.333 548 233C544.667 223.667 538.333 213.333 529 202C519.667 190 507.333 178.667 492 168C476.667 157.333 458.333 148.667 437 142C415.667 134.667 391.667 131 365 131C335 131 307.667 139 283 155C258.333 170.333 237 191 219 217C201 242.333 186.667 271.667 176 305C165.333 337.667 159 371.667 157 407C162.333 408.333 173.333 409.667 190 411C207.333 412.333 226 413.333 246 414C266 414.667 285.333 415.333 304 416C322.667 416 336.667 415.667 346 415C367.333 415 388.333 414 409 412C429.667 410 448.667 407.333 466 404C483.333 400 498.333 395.667 511 391C523.667 386.333 532.667 381.333 538 376C540.667 372 544.333 370.333 549 371C554.333 371.667 558 373.333 560 376C558.667 382 556.333 390 553 400C549.667 409.333 546 420.333 542 433C538 445.667 534.667 459.667 532 475C529.333 490.333 528 506.333 528 523C526.667 529.667 522.667 531.667 516 529C510 526.333 506.333 522.667 505 518C502.333 507.333 495.667 499 485 493C475 487 461.667 482.667 445 480C429 476.667 410.667 474.667 390 474C369.333 473.333 347 473 323 473C277.667 473 241 473.333 213 474C185.667 474.667 166.333 475.333 155 476C155 496 156.333 517.667 159 541C162.333 564.333 167.667 587.667 175 611C182.333 634.333 192 657 204 679C216 700.333 231 719.667 249 737C267 753.667 288.333 767 313 777C338.333 787 367.333 792 400 792C431.333 792 459 788.333 483 781C507 773 527.333 763.667 544 753C560.667 741.667 574 730 584 718C594.667 706 602 695.333 606 686C608 684 609.333 683 610 683C612.667 683 615.667 684 619 686C623 688 625 690.667 625 694C623 701.333 621 709.333 619 718C615.667 734.667 614 753.667 614 775C614 792.333 614.667 809.333 616 826C617.333 842.667 619.667 856.667 623 868C616.333 870.667 610.333 871.667 605 871C600.333 871 597.333 868 596 862Z" fill="black"/>
</svg>
