<svg width="2368" height="872" viewBox="0 0 2368 872" fill="none" xmlns="http://www.w3.org/2000/svg">
<path d="M596 862C594.667 852.667 592 842.667 588 832C584.667 822 577 817 565 817C555 817 541.333 817.333 524 818C507.333 819.333 489.333 820.667 470 822C450.667 824 431.333 825.333 412 826C392.667 827.333 375.667 828 361 828C303 828 251.667 819.667 207 803C162.333 786.333 124.667 763.333 94 734C63.3333 704.667 40 669.667 24 629C8 587.667 1.74344e-06 542.333 1.74344e-06 493C1.74344e-06 424.333 11 365.333 33 316C55 266 84.6667 225 122 193C159.333 161 202.333 137.667 251 123C299.667 107.667 350.667 99.9999 404 99.9999C420 99.9999 437.333 100.667 456 102C474.667 102.667 492.333 104 509 106C525.667 107.333 540.333 109 553 111C565.667 112.333 574.667 113.667 580 115C583.333 115.667 586.667 110 590 98C593.333 86 597.333 73 602 58.9999C607.333 44.3333 613.333 31 620 19C626.667 6.33331 634.667 -1.85966e-05 644 -1.85966e-05C655.333 3.33331 663.333 6.99997 668 11C672.667 14.9999 670.333 20.3333 661 27C645.667 39 632.667 55.3333 622 76C612 96 603 120.333 595 149C591.667 157.667 588 170 584 186C580.667 202 577.667 220 575 240C573.667 245.333 569.333 248 562 248C555.333 247.333 550.667 242.333 548 233C544.667 223.667 538.333 213.333 529 202C519.667 190 507.333 178.667 492 168C476.667 157.333 458.333 148.667 437 142C415.667 134.667 391.667 131 365 131C335 131 307.667 139 283 155C258.333 170.333 237 191 219 217C201 242.333 186.667 271.667 176 305C165.333 337.667 159 371.667 157 407C162.333 408.333 173.333 409.667 190 411C207.333 412.333 226 413.333 246 414C266 414.667 285.333 415.333 304 416C322.667 416 336.667 415.667 346 415C367.333 415 388.333 414 409 412C429.667 410 448.667 407.333 466 404C483.333 400 498.333 395.667 511 391C523.667 386.333 532.667 381.333 538 376C540.667 372 544.333 370.333 549 371C554.333 371.667 558 373.333 560 376C558.667 382 556.333 390 553 400C549.667 409.333 546 420.333 542 433C538 445.667 534.667 459.667 532 475C529.333 490.333 528 506.333 528 523C526.667 529.667 522.667 531.667 516 529C510 526.333 506.333 522.667 505 518C502.333 507.333 495.667 499 485 493C475 487 461.667 482.667 445 480C429 476.667 410.667 474.667 390 474C369.333 473.333 347 473 323 473C277.667 473 241 473.333 213 474C185.667 474.667 166.333 475.333 155 476C155 496 156.333 517.667 159 541C162.333 564.333 167.667 587.667 175 611C182.333 634.333 192 657 204 679C216 700.333 231 719.667 249 737C267 753.667 288.333 767 313 777C338.333 787 367.333 792 400 792C431.333 792 459 788.333 483 781C507 773 527.333 763.667 544 753C560.667 741.667 574 730 584 718C594.667 706 602 695.333 606 686C608 684 609.333 683 610 683C612.667 683 615.667 684 619 686C623 688 625 690.667 625 694C623 701.333 621 709.333 619 718C615.667 734.667 614 753.667 614 775C614 792.333 614.667 809.333 616 826C617.333 842.667 619.667 856.667 623 868C616.333 870.667 610.333 871.667 605 871C600.333 871 597.333 868 596 862ZM1049.16 738C1043.16 744 1033.49 752 1020.16 762C1006.82 772 991.156 782 973.156 792C955.156 801.333 935.49 809.667 914.156 817C893.49 823.667 872.49 827 851.156 827C829.156 827 807.156 822 785.156 812C763.156 802 743.156 787.667 725.156 769C707.823 749.667 693.823 726.667 683.156 700C672.49 673.333 667.156 643.333 667.156 610C667.156 566.667 674.49 527.333 689.156 492C704.49 456.667 726.49 426.667 755.156 402C784.49 377.333 819.823 358.333 861.156 345C903.156 331.667 951.156 325 1005.16 325C1014.49 325 1023.49 325 1032.16 325C1040.82 325 1048.82 325.333 1056.16 326C1056.16 320 1056.16 309.333 1056.16 294C1056.16 278 1055.82 261.667 1055.16 245C1055.16 228.333 1054.82 213 1054.16 199C1054.16 185 1054.16 176.333 1054.16 173C1051.49 146.333 1046.82 127.667 1040.16 117C1034.16 106.333 1021.49 101 1002.16 101C999.49 101 997.823 98 997.156 92C997.156 86 999.49 81.3333 1004.16 78C1009.49 74.6666 1015.49 72.3333 1022.16 71C1028.82 68.9999 1038.82 67.9999 1052.16 67.9999C1077.49 67.9999 1098.49 67.9999 1115.16 67.9999C1132.49 67.3333 1146.49 66.6666 1157.16 66C1168.49 64.6666 1177.49 63.3333 1184.16 62C1190.82 59.9999 1196.49 57.9999 1201.16 56C1204.49 55.3333 1207.16 56.3333 1209.16 58.9999C1211.82 61 1213.49 64 1214.16 67.9999C1215.49 71.3333 1215.82 74.6666 1215.16 78C1214.49 81.3333 1212.49 83.3333 1209.16 84C1201.82 85.3333 1196.16 87 1192.16 89C1188.82 90.3333 1185.49 93.3333 1182.16 98C1178.82 102.667 1175.82 115 1173.16 135C1170.49 155 1167.82 179.667 1165.16 209C1162.49 238.333 1160.16 271 1158.16 307C1156.16 342.333 1154.49 378 1153.16 414C1151.82 450 1150.49 485 1149.16 519C1148.49 553 1148.16 582.667 1148.16 608C1148.16 656.667 1153.49 692.667 1164.16 716C1174.82 738.667 1191.16 750 1213.16 750C1221.16 750 1229.82 748.667 1239.16 746C1249.16 743.333 1258.16 740.333 1266.16 737C1274.82 733 1282.49 729.333 1289.16 726C1296.49 722 1301.82 718.667 1305.16 716C1308.49 713.333 1311.49 715 1314.16 721C1316.82 727 1316.49 731 1313.16 733C1305.16 737.667 1292.49 744.667 1275.16 754C1258.49 762.667 1239.82 772 1219.16 782C1193.82 794.667 1168.16 806 1142.16 816C1116.16 826 1095.16 831 1079.16 831C1067.16 831 1058.82 829 1054.16 825C1050.16 821 1048.16 814.667 1048.16 806C1048.16 803.333 1048.16 799 1048.16 793C1048.16 786.333 1048.16 779.667 1048.16 773C1048.82 765.667 1049.16 759 1049.16 753C1049.16 746.333 1049.16 741.333 1049.16 738ZM1036.16 704C1041.49 696.667 1045.49 688.333 1048.16 679C1050.82 669 1052.82 655.667 1054.16 639C1055.49 625 1056.16 608 1056.16 588C1056.16 567.333 1056.16 549.333 1056.16 534C1056.16 518.667 1055.82 502.333 1055.16 485C1055.16 467.667 1054.82 455.667 1054.16 449C1052.82 437.667 1048.16 427 1040.16 417C1032.16 407 1021.82 398.333 1009.16 391C996.49 383.667 981.49 378 964.156 374C947.49 369.333 929.823 367 911.156 367C893.156 367 876.156 370 860.156 376C844.156 382 830.156 391.667 818.156 405C806.823 418.333 797.823 435.667 791.156 457C784.49 477.667 781.156 503.333 781.156 534C781.156 565.333 785.49 594 794.156 620C802.823 645.333 814.823 667.333 830.156 686C845.49 704.667 863.823 719.333 885.156 730C906.49 740 929.823 745 955.156 745C965.156 745 974.49 743.667 983.156 741C991.823 737.667 999.49 734 1006.16 730C1013.49 725.333 1019.82 720.667 1025.16 716C1030.49 711.333 1034.16 707.333 1036.16 704ZM1723.95 701C1716.62 709 1705.29 720 1689.95 734C1674.62 748 1655.95 762 1633.95 776C1612.62 790 1588.62 802 1561.95 812C1535.29 822 1506.95 827 1476.95 827C1449.62 827 1422.95 823 1396.95 815C1370.95 806.333 1347.62 793.667 1326.95 777C1306.29 759.667 1289.62 738 1276.95 712C1264.95 685.333 1258.95 653.667 1258.95 617C1258.95 587 1260.95 561.333 1264.95 540C1268.95 518 1274.29 499 1280.95 483C1287.62 466.333 1294.95 452.333 1302.95 441C1311.62 429 1320.29 418.333 1328.95 409C1339.62 397 1352.62 385.667 1367.95 375C1383.29 364.333 1399.62 354.667 1416.95 346C1434.95 337.333 1453.62 330.667 1472.95 326C1492.95 320.667 1512.95 318 1532.95 318C1568.95 318 1596.95 324 1616.95 336C1637.62 348 1647.95 364.667 1647.95 386C1647.95 399.333 1643.95 411.667 1635.95 423C1642.62 421 1650.95 417.667 1660.95 413C1671.62 408.333 1682.29 403.667 1692.95 399C1703.62 393.667 1712.95 389 1720.95 385C1729.62 381 1735.29 378 1737.95 376C1739.29 374.667 1740.62 374.333 1741.95 375C1743.95 375 1744.95 376 1744.95 378C1744.95 386.667 1743.29 394 1739.95 400C1736.62 405.333 1732.62 409.667 1727.95 413C1717.29 419.667 1701.95 428 1681.95 438C1661.95 448 1639.62 458.667 1614.95 470C1590.95 480.667 1565.95 491.667 1539.95 503C1513.95 513.667 1489.29 524 1465.95 534C1443.29 544 1423.29 553 1405.95 561C1389.29 568.333 1377.95 573.667 1371.95 577C1371.95 599.667 1376.29 621 1384.95 641C1394.29 660.333 1406.95 677.333 1422.95 692C1438.95 706.667 1457.95 718.333 1479.95 727C1502.62 735 1527.29 739 1553.95 739C1577.95 739 1599.62 736.667 1618.95 732C1638.29 726.667 1654.62 721 1667.95 715C1681.29 708.333 1691.62 702.667 1698.95 698C1706.95 692.667 1711.29 690 1711.95 690C1714.62 690 1717.29 691.333 1719.95 694C1722.62 696 1723.95 698.333 1723.95 701ZM1371.95 548C1383.29 544 1395.95 539.333 1409.95 534C1424.62 528 1438.62 521.667 1451.95 515C1465.95 508.333 1478.62 502 1489.95 496C1501.29 490 1509.95 484.667 1515.95 480C1527.95 471.333 1533.95 456.667 1533.95 436C1533.95 428 1532.29 419.667 1528.95 411C1526.29 402.333 1521.95 394.667 1515.95 388C1509.95 380.667 1502.62 375 1493.95 371C1485.29 366.333 1475.62 364 1464.95 364C1455.62 364 1445.62 367.333 1434.95 374C1424.29 380 1414.29 390.333 1404.95 405C1395.62 419 1387.62 438 1380.95 462C1374.95 485.333 1371.95 514 1371.95 548ZM1886.82 554C1886.15 560 1885.49 565.333 1884.82 570C1884.15 574.667 1883.49 580 1882.82 586C1882.82 592 1882.49 599.667 1881.82 609C1881.82 617.667 1881.82 629.333 1881.82 644C1881.82 668 1882.49 687.667 1883.82 703C1885.82 718.333 1888.49 730.667 1891.82 740C1895.15 748.667 1899.15 754.667 1903.82 758C1909.15 761.333 1915.49 763 1922.82 763C1927.49 763 1932.49 762.333 1937.82 761C1939.15 761 1940.15 763 1940.82 767C1942.15 770.333 1942.15 772.667 1940.82 774C1936.82 777.333 1928.82 782.333 1916.82 789C1905.49 795 1892.49 801 1877.82 807C1863.15 813 1847.82 818.333 1831.82 823C1816.49 827.667 1803.49 830 1792.82 830C1783.49 830 1776.15 828.667 1770.82 826C1765.49 824 1762.82 821.333 1762.82 818C1762.82 814.667 1763.15 812.667 1763.82 812C1764.49 811.333 1765.49 809.667 1766.82 807C1768.15 803.667 1769.15 799.667 1769.82 795C1770.49 789.667 1771.49 783.667 1772.82 777C1774.15 767.667 1775.49 756 1776.82 742C1778.15 727.333 1779.49 711.667 1780.82 695C1782.15 677.667 1783.15 660 1783.82 642C1785.15 623.333 1785.82 605.333 1785.82 588C1785.82 580.667 1785.49 571.667 1784.82 561C1784.82 549.667 1784.49 535.333 1783.82 518C1783.15 498.667 1780.82 482.333 1776.82 469C1773.49 455 1768.82 444 1762.82 436C1757.49 427.333 1751.15 421 1743.82 417C1737.15 413 1730.49 411 1723.82 411C1720.49 411 1717.15 411 1713.82 411C1710.49 411 1707.15 411.333 1703.82 412C1701.15 412 1699.82 409 1699.82 403C1699.82 401.667 1700.15 400.667 1700.82 400C1702.15 398.667 1705.49 396.333 1710.82 393C1719.49 387 1731.15 379.667 1745.82 371C1760.49 362.333 1775.49 354.333 1790.82 347C1806.15 339.667 1820.49 333.333 1833.82 328C1847.82 322.667 1858.49 320 1865.82 320C1885.15 320 1894.82 331 1894.82 353C1894.82 356.333 1894.49 362.333 1893.82 371C1893.15 379.667 1892.49 388.667 1891.82 398C1891.82 406.667 1891.49 415 1890.82 423C1890.15 431 1889.82 436.333 1889.82 439C1903.82 425.667 1918.82 412 1934.82 398C1950.82 384 1968.15 371.333 1986.82 360C2005.49 348 2025.15 338.333 2045.82 331C2066.49 323.667 2087.82 320 2109.82 320C2149.82 320 2182.49 331.667 2207.82 355C2233.82 377.667 2246.82 414 2246.82 464C2246.82 477.333 2245.82 493 2243.82 511C2242.49 529 2240.82 547.667 2238.82 567C2236.82 586.333 2234.82 605.333 2232.82 624C2231.49 642.667 2230.82 659.333 2230.82 674C2230.82 727.333 2248.15 754 2282.82 754C2289.49 754 2296.82 753 2304.82 751C2313.49 748.333 2321.49 745.667 2328.82 743C2336.82 739.667 2343.82 736.667 2349.82 734C2355.82 730.667 2359.82 728 2361.82 726C2362.49 725.333 2363.15 726 2363.82 728C2365.15 729.333 2366.15 731.333 2366.82 734C2367.49 736.667 2367.49 739 2366.82 741C2366.82 743 2366.49 744.333 2365.82 745C2360.49 748.333 2348.82 754.667 2330.82 764C2313.49 773.333 2293.82 783 2271.82 793C2250.49 802.333 2229.15 810.667 2207.82 818C2186.49 826 2169.49 830 2156.82 830C2141.49 830 2130.82 826.333 2124.82 819C2119.49 811.667 2116.82 804 2116.82 796C2116.82 790.667 2117.49 784 2118.82 776C2120.82 768 2123.15 755 2125.82 737C2128.49 717.667 2130.82 695 2132.82 669C2135.49 643 2136.82 615 2136.82 585C2136.82 526.333 2125.82 482 2103.82 452C2082.49 421.333 2055.49 406 2022.82 406C2002.15 406 1983.82 410 1967.82 418C1951.82 426 1938.15 437 1926.82 451C1915.49 464.333 1906.49 480 1899.82 498C1893.15 515.333 1888.82 534 1886.82 554Z" fill="black"/>
</svg>
